<svg xmlns="http://www.w3.org/2000/svg" xmlns:xlink="http://www.w3.org/1999/xlink" aria-hidden="true" role="img" class="iconify iconify--logos" width="32" height="32" preserveAspectRatio="xMidYMid meet" viewBox="0 0 93 93.0231024319104" fill="#4b5563">
<g transform="matrix(5.446623365279555,0,0,5.446623365279555,0,-32)" fill="#4b5563">
<path d="M13.74 13 c0.96 0.7 1.56 1.82 1.56 3.1 c0 2.16 -1.74 3.9 -3.9 3.9 l-11.4 0 l0 -7.8 l4.66 0 l0 0.02 l0 3.1 l6.74 0 c0.42 0.02 0.74 0.36 0.74 0.78 s-0.32 0.76 -0.74 0.78 l-8.28 0 l0 -3.12 l-1.56 0 l0 4.68 l9.84 0 l0.02 0 c1.28 0 2.32 -1.04 2.32 -2.34 c0 -1.22 -0.98 -2.26 -2.2 -2.32 l-5.32 0 l0 -1.56 l5.26 0 c1.26 -0.06 2.26 -1.06 2.26 -2.34 c0 -1.3 -1.04 -2.34 -2.32 -2.34 l-0.02 0 l-9.84 0 l0 1.56 l9.84 0 c0.42 0.02 0.74 0.36 0.74 0.78 s-0.32 0.76 -0.74 0.78 l-11.4 0 l0 -4.68 l11.4 0 c2.16 0 3.9 1.74 3.9 3.9 c0 1.28 -0.6 2.4 -1.56 3.12 z"></path>
</g>
</svg>