<svg width="403" height="70.70729428575929" viewBox="0 0 369.6666666666667 64.85888284773122" class="looka-1j8o68f"><defs id="SvgjsDefs1862"><linearGradient id="SvgjsLinearGradient1867"><stop id="SvgjsStop1868" stop-color="#905e26" offset="0"></stop><stop id="SvgjsStop1869" stop-color="#f5ec9b" offset="0.5"></stop><stop id="SvgjsStop1870" stop-color="#905e26" offset="1"></stop></linearGradient></defs><g id="SvgjsG1863" featurekey="PG4fjM-0" transform="matrix(0.8333028804463908,0,0,0.8333028804463908,-0.000019979243496630234,-9.237051203598542)" fill="#ffffff"><path xmlns="http://www.w3.org/2000/svg" d="M54.418,11.125c-0.251,0.036-0.61,0.093-0.789,0.136c-0.179,0.036-0.653,0.05-1.047,0.029  c-1.019-0.057-1.478,0.093-2.597,0.832C48.163,13.327,22.21,31.59,4.127,44.401c-0.768,0.545-0.861,0.638-1.277,1.27  c-1.341,2.023-2.346,4.82-2.69,7.489c-0.387,2.97-0.05,7.618,0.775,10.846c0.423,1.635,0.854,2.654,1.227,2.898  c0.143,0.093,0.244,0.1,0.552,0.043c0.208-0.036,0.438-0.093,0.502-0.122c0.093-0.036,0.143,0.014,0.23,0.208  c0.251,0.595,1.255,1.42,2.589,2.116c0.316,0.172,3.156,1.542,6.312,3.056c5.703,2.733,5.738,2.747,5.846,2.597  c0.287-0.409,0.681-0.768,1.542-1.377c0.509-0.366,1.004-0.746,1.09-0.839l0.158-0.165l-2.489-1.284  c-3.809-1.958-6.944-3.651-10.882-5.86l-2.008-1.126l-0.122-0.818c-0.251-1.722-0.308-2.798-0.308-5.545  c0-2.625,0.065-3.845,0.294-6.133c0.151-1.557,0.466-3.83,0.531-3.895c0.287-0.301,16.34,6.915,37.336,16.771  c3.185,1.499,3.873,1.779,5.201,2.13c1.514,0.402,2.582,0.287,3.909-0.43c0.308-0.165,4.318-3.249,10.222-7.869  c8.199-6.413,26.34-20.572,28.319-22.115c0.323-0.251,0.588-0.438,0.588-0.416c0,0.029-0.079,0.172-0.172,0.316  c-0.093,0.151-0.323,0.581-0.509,0.954c-1.377,2.726-1.664,5.416-0.846,7.869c0.237,0.724,0.76,1.729,1.184,2.295  c0.194,0.251,0.344,0.473,0.337,0.502c0,0.029-0.524,0.488-1.162,1.026c-7.639,6.434-31.44,26.878-40.033,34.374  c-0.94,0.825-1.75,1.514-1.8,1.528c-0.1,0.043-0.531-0.129-3.945-1.535c-4.433-1.829-9.669-4.11-13.521-5.889  c-1.363-0.631-1.399-0.646-1.542-0.516c-0.079,0.072-0.373,0.273-0.646,0.452c-0.28,0.179-0.61,0.452-0.724,0.603  c-0.194,0.244-0.911,1.542-0.868,1.578c0.007,0,2.697,1.291,5.968,2.862c4.584,2.195,6.865,3.242,9.899,4.541  c5.459,2.324,4.914,2.123,5.631,2.123c1.011,0,2.138-0.466,3.436-1.442c1.191-0.889,3.752-3.084,5.136-4.397  c1.019-0.968,9.16-8.163,27.258-24.109c3.321-2.927,7.101-6.334,9.124-8.235c3.257-3.056,3.465-3.264,3.601-3.637  c0.179-0.466,0.187-0.681,0.05-0.954c-0.122-0.23-0.868-0.94-1.255-1.191c-0.143-0.093-1.191-0.466-2.338-0.825  c-1.141-0.366-2.087-0.667-2.102-0.681c-0.014-0.007-0.05-0.301-0.086-0.646c-0.129-1.219,0.108-2.776,0.66-4.411  c0.351-1.047,1.349-3.077,2.044-4.182c0.416-0.653,0.567-0.825,1.026-1.169c1.198-0.904,4.304-3.795,4.498-4.189  s0.165-0.746-0.086-1.011c-0.287-0.308-1.105-0.839-1.836-1.191c-0.538-0.265-40.722-15.236-41.418-15.437  C56.139,11.089,54.977,11.046,54.418,11.125z M55.537,13.284c0.452,0.115,0.818,0.473,0.818,0.796c0,0.495-0.631,0.846-1.528,0.846  c-0.646,0-1.011-0.115-1.327-0.409c-0.222-0.208-0.244-0.265-0.208-0.502c0.029-0.143,0.108-0.323,0.187-0.402  C53.815,13.27,54.841,13.112,55.537,13.284z M61.383,16.928c9.461,3.429,17.323,6.413,21.835,8.292  c2.267,0.947,3.644,1.571,3.673,1.664c0.014,0.043-0.108,0.23-0.265,0.423c-0.323,0.387-0.574,0.983-0.574,1.341  c0.007,0.61,0.603,1.27,1.585,1.75l0.581,0.287l-2.123,1.8c-11.728,9.985-23.664,19.41-30.636,24.202l-0.789,0.545l-1.04-0.351  c-2.209-0.739-3.149-0.653-5.473,0.509l-0.997,0.495l-14.82-6.822c-8.156-3.752-14.985-6.893-15.178-6.979l-0.351-0.151l0.351-0.208  c1.148-0.66,1.557-1.334,1.184-1.951c-0.143-0.237-0.552-0.545-1.069-0.803c-0.165-0.086-0.301-0.179-0.301-0.208  c0.007-0.057,0.875-0.689,5.308-3.845c4.727-3.364,26.203-18.514,29.051-20.494c0.179-0.122,0.194-0.122,0.681,0.122  c0.753,0.366,1.514,0.545,2.403,0.545c1.234,0.007,2.245-0.351,3.013-1.069c0.215-0.208,0.402-0.373,0.402-0.38  C57.839,15.644,59.439,16.225,61.383,16.928z M92.994,27.164c1.069,0.524,0.968,1.75-0.179,2.181  c-0.739,0.273-1.614,0.129-2.102-0.359c-0.445-0.445-0.466-1.004-0.057-1.478C91.194,26.899,92.148,26.756,92.994,27.164z   M13.94,42.321c0.402,0.201,0.595,0.466,0.595,0.803c0,0.947-2.044,1.277-2.919,0.473c-0.344-0.308-0.258-0.882,0.172-1.162  C12.326,42.084,13.366,42.027,13.94,42.321z M52.495,59.659c0.911,0.294,1.176,1.004,0.567,1.557  c-0.373,0.337-0.717,0.445-1.442,0.445s-1.155-0.143-1.499-0.488c-0.459-0.481-0.316-1.062,0.366-1.399  C51.096,59.472,51.771,59.436,52.495,59.659z M57.696,16.677c-0.387,0.344-1.141,0.724-1.808,0.918  c-0.459,0.129-0.746,0.158-1.435,0.158c-0.947-0.007-1.492-0.108-2.381-0.452l-0.545-0.215l-6.535,4.598  C30.703,31.748,18.574,40.327,18.193,40.657c-0.014,0.014,0.122,0.158,0.301,0.316c0.832,0.71,0.846,1.671,0.043,2.546  c-0.165,0.187-0.273,0.351-0.237,0.366c0.043,0.014,6.542,3.006,14.454,6.649l14.375,6.621l0.94-0.452  c0.509-0.251,1.241-0.552,1.614-0.681c1.248-0.416,2.439-0.359,4.081,0.208l0.811,0.28l1.478-1.04  c4.784-3.357,11.212-8.299,18.485-14.217c3.78-3.077,12.381-10.265,12.424-10.387c0.014-0.029-0.122-0.136-0.294-0.251  c-0.395-0.251-0.846-0.732-1.062-1.141c-0.129-0.244-0.165-0.423-0.165-0.846c0-0.459,0.036-0.61,0.237-1.033  c0.129-0.273,0.222-0.502,0.215-0.509c-0.208-0.143-4.411-1.887-7.037-2.912c-5.444-2.138-20.537-7.747-20.809-7.74  C58.004,16.441,57.846,16.548,57.696,16.677z M91.359,27.781c-0.337,0.237-0.402,0.366-0.301,0.595  c0.136,0.287,0.66,0.495,1.155,0.445c0.603-0.065,0.954-0.38,0.832-0.746C92.887,27.631,91.847,27.451,91.359,27.781z   M12.426,42.859c-0.402,0.151-0.452,0.222-0.23,0.366c0.28,0.187,0.983,0.222,1.37,0.079c0.179-0.072,0.323-0.158,0.323-0.194  C13.889,42.845,12.914,42.68,12.426,42.859z M50.946,60.261c-0.258,0.079-0.473,0.273-0.43,0.395  c0.022,0.05,0.172,0.151,0.337,0.222c0.552,0.251,1.635,0.129,1.858-0.215c0.079-0.115-0.143-0.323-0.438-0.402  C51.964,60.175,51.233,60.175,50.946,60.261z M18.552,56.545c1.499,0.71,6.456,3.178,6.456,3.214c0,0.029-0.158,0.151-0.359,0.28  c-1.148,0.746-2.008,1.958-2.346,3.292c-0.093,0.366-0.122,0.789-0.122,1.772c0,1.427,0.057,1.937,0.466,4.447  c0.294,1.829,0.337,2.482,0.187,2.855c-0.122,0.287-0.481,0.61-1.356,1.219c-1.105,0.775-1.363,1.033-1.772,1.843  c-0.617,1.198-1.184,1.7-2.805,2.489c-0.567,0.28-1.141,0.667-2.331,1.571c-2.97,2.252-4.44,3.092-6.205,3.536l-0.538,0.136  l0.423,0.05c0.23,0.029,0.861,0.036,1.399,0.014c1.93-0.079,3.615-0.674,7.618-2.676l1.772-0.882l-0.818,1.219  c-1.334,2.008-2.274,4.053-2.568,5.631c-0.143,0.768-0.208,1.808-0.136,2.066c0.065,0.208,0.072,0.208,0.56-0.502  c1.478-2.116,3.156-4.189,4.074-5.007c0.782-0.703,1.105-0.933,2.468-1.736c2.374-1.413,2.962-1.93,3.558-3.12  c0.445-0.889,0.653-1.126,1.406-1.643c0.825-0.56,1.341-1.062,1.528-1.485c0.251-0.545,0.208-1.585-0.122-3.142  c-0.473-2.231-0.545-2.697-0.588-3.881c-0.029-0.933-0.014-1.262,0.079-1.7c0.143-0.653,0.552-1.499,1.011-2.13  c0.409-0.552,1.392-1.578,1.506-1.578c0.05,0,0.76,0.323,1.585,0.724c3.866,1.872,9.433,4.462,9.476,4.411  c0.086-0.086-3.465-2.496-5.322-3.608c-5.337-3.199-11.57-5.903-17.467-7.582C18.251,56.352,18.093,56.33,18.552,56.545z   M49.181,68.245c-1.427,1.133-2.353,2.884-2.661,5.057c-0.122,0.897-0.05,3.214,0.143,4.246s0.488,2.159,0.854,3.228  c0.294,0.861,0.882,2.381,0.911,2.353c0.014-0.014-0.122-0.861-0.294-1.887c-0.768-4.562-0.897-6.951-0.488-9.088  c0.244-1.277,0.775-2.568,1.442-3.479c0.194-0.258,0.387-0.531,0.445-0.603C49.676,67.872,49.619,67.9,49.181,68.245z   M55.529,14.073c0,0.234-0.326,0.424-0.728,0.424c-0.402,0-0.728-0.19-0.728-0.424s0.326-0.424,0.728-0.424  C55.204,13.649,55.529,13.839,55.529,14.073z"></path></g><g id="SvgjsG1864" featurekey="jxYttZ-0" transform="matrix(3.1618055281662834,0,0,3.1618055281662834,99.01612431083063,-6.607541178288303)" fill="url(#SvgjsLinearGradient1867)"><path d="M6.16 9.94 c2.84 0 4.94 2.2 4.94 5.14 s-2.1 5.12 -4.94 5.12 c-0.96 0 -2.06 -0.36 -2.84 -0.94 l0 0.74 l-2.06 0 l0 -15 l2.06 0 l0 5.9 c0.66 -0.54 1.88 -0.96 2.84 -0.96 z M5.96 18.52 c1.7 0 3.08 -1.44 3.08 -3.44 c0 -2.02 -1.38 -3.44 -3.08 -3.44 c-1.12 0 -2.1 0.5 -2.64 1.56 c-0.28 0.56 -0.44 1.2 -0.44 1.88 s0.16 1.32 0.44 1.86 c0.54 1.06 1.52 1.58 2.64 1.58 z M17.84 11.64 c-1.7 0 -3.08 1.42 -3.08 3.44 c0 2 1.38 3.44 3.08 3.44 s3.08 -1.44 3.08 -3.44 c0 -2.02 -1.38 -3.44 -3.08 -3.44 z M17.84 9.94 c2.84 0 5.14 2.2 5.14 5.14 s-2.3 5.12 -5.14 5.12 s-5.14 -2.18 -5.14 -5.12 s2.3 -5.14 5.14 -5.14 z M29.92 11.64 c-1.7 0 -3.08 1.42 -3.08 3.44 c0 2 1.38 3.44 3.08 3.44 s3.08 -1.44 3.08 -3.44 c0 -2.02 -1.38 -3.44 -3.08 -3.44 z M29.92 9.94 c2.84 0 5.14 2.2 5.14 5.14 s-2.3 5.12 -5.14 5.12 s-5.14 -2.18 -5.14 -5.12 s2.3 -5.14 5.14 -5.14 z M44.36 20 l-3.74 -4.78 l-1.08 0.92 l0 3.86 l-2.08 0 l0 -15 l2.08 0 l0 8.58 l3.98 -3.46 l3.2 0 l-4.6 3.84 l4.9 6.04 l-2.66 0 z M52.64 9.92 c2.84 0 3.98 1.72 3.98 3.18 l0 6.9 l-2.06 0 l0 -1.08 c-0.72 0.98 -2 1.26 -2.8 1.26 c-2.26 0 -3.74 -1.32 -3.74 -3.08 c0 -2.46 1.84 -3.34 3.74 -3.34 l2.8 0 l0 -0.66 c0 -0.62 -0.24 -1.48 -1.92 -1.48 c-0.94 0 -1.8 0.5 -2.36 1.28 l-1.42 -1.28 c0.94 -1.04 2.28 -1.7 3.78 -1.7 z M54.56 16.92 l0 -1.48 l-2.52 0 c-1.22 0 -2.08 0.62 -1.94 1.74 c0.12 0.94 0.88 1.32 1.94 1.32 c1.9 0 2.52 -0.9 2.52 -1.58 z M64.06 9.94 c2.84 0 4.94 2.2 4.94 5.14 s-2.1 5.12 -4.94 5.12 c-0.96 0 -2.06 -0.36 -2.84 -0.94 l0 0.74 l-2.06 0 l0 -15 l2.06 0 l0 5.9 c0.66 -0.54 1.88 -0.96 2.84 -0.96 z M63.86 18.52 c1.7 0 3.08 -1.44 3.08 -3.44 c0 -2.02 -1.38 -3.44 -3.08 -3.44 c-1.12 0 -2.1 0.5 -2.64 1.56 c-0.28 0.56 -0.44 1.2 -0.44 1.88 s0.16 1.32 0.44 1.86 c0.54 1.06 1.52 1.58 2.64 1.58 z M73.28 4.619999999999999 l0 15.38 l-2.08 0 l0 -15.38 l2.08 0 z M85.6 15.08 l0 0.74 l-7.78 0 c0 1.82 1.74 2.7 3.02 2.7 c0.94 0 1.98 -0.5 2.54 -1.3 l1.42 1.28 c-0.66 0.9 -1.74 1.7 -3.96 1.7 c-3.2 0 -5.16 -2.18 -5.16 -5.12 s1.9 -5.14 4.96 -5.14 s4.46 1.7 4.88 4.18 c0.06 0.32 0.08 0.64 0.08 0.96 z M77.86 14.120000000000001 l5.58 0 c0 -1.6 -1.28 -2.48 -2.8 -2.48 s-2.78 1.02 -2.78 2.48 z"></path></g></svg>